<svg xmlns="http://www.w3.org/2000/svg" viewBox="0 0 696.9 129.01"><defs><style>.cls-1{fill:#0064e0;fill-rule:evenodd;}.cls-2{fill:#fff;}</style></defs><g id="Layer_2" data-name="Layer 2"><g id="Layer_1-2" data-name="Layer 1"><path class="cls-1" d="M33.62,38.45a5.86,5.86,0,0,1,2.06-3.57,3,3,0,0,1,2.19-.82h1.92V25.83H34.58a7.37,7.37,0,0,0-2.47.55,9.67,9.67,0,0,0-6.86,7.13A38.78,38.78,0,0,0,23.6,43.94a31.6,31.6,0,0,0-.68,4.94A7.2,7.2,0,0,1,17,55.74a6.76,6.76,0,0,1-1.37.55,39.88,39.88,0,0,0-.27,6.59,5,5,0,0,0,1.92.54,8.67,8.67,0,0,1,4.53,3.3,21.56,21.56,0,0,1,1.78,8,48.4,48.4,0,0,1,.82,5.76q1.17,14.18,15.37,12.35V89.22A24.91,24.91,0,0,1,34.58,89a.78.78,0,0,1-.82-.28A7.42,7.42,0,0,1,29,82.91q-.27-12.48,0-25a11.38,11.38,0,0,1,2.34-4.12,2.77,2.77,0,0,0,.82-1.1,10.87,10.87,0,0,1,.55-3.84Q33.05,43.66,33.62,38.45Z" transform="translate(0 0)"/><path class="cls-1" d="M105.66,12.93a.44.44,0,0,0-.55-.27l-1.65-1.1L95,8.13A118.86,118.86,0,0,0,61.2.58,5.63,5.63,0,0,0,58.73.31V1.4q-2.65,14.12-5.22,28.27a19.15,19.15,0,0,1,3.3.14,44.31,44.31,0,0,1,6.31,2.06Q65,21.6,66.69,11.28a99,99,0,0,1,28.54,7.55,2.77,2.77,0,0,1,1.37,1v48.3a9.94,9.94,0,0,0-.27,3.29q-.06.33-.09.63h0c0,.19,0,.38-.06.55h0l0,.39,0-.39A46,46,0,0,1,86.86,95a91.68,91.68,0,0,1-33.62,23.61A75.54,75.54,0,0,0,52.83,129a97.64,97.64,0,0,0,39-25,53.67,53.67,0,0,0,13.86-33.75h.27Q106.07,41.54,105.66,12.93ZM96.14,73.14v0Zm0,.38v0Zm.11,1a1.19,1.19,0,0,0,.08.2A1.19,1.19,0,0,1,96.25,74.48Zm-.1-.62a1.27,1.27,0,0,0,0,.28A1.27,1.27,0,0,1,96.15,73.86Zm0,.37c0,.06,0,.12,0,.17S96.2,74.29,96.19,74.23Z" transform="translate(0 0)"/><path class="cls-1" d="M57.91,33.65Q43.56,30.58,37.73,43.94q-.51,5.46-.54,11a5.67,5.67,0,0,0-4.94,3.57q-.28,11.92,0,23.87a6.35,6.35,0,0,0,4,3.84q16.76.08,33.49-.13,1-.36,1.92-.69a6.71,6.71,0,0,0,2.05-3q.28-11.94,0-23.87a5,5,0,0,0-4.8-3.3c.05-3.11,0-6.22-.13-9.33A16.05,16.05,0,0,0,57.91,33.65ZM43.09,47.23A9.76,9.76,0,0,1,51,38.86q8-1,11.26,6.18A13.65,13.65,0,0,0,62.57,47v7.68H43.09ZM63,66.44,51.59,77.83a1.72,1.72,0,0,1-1.37,0l-6.17-6.17q-.34-3,2.6-2.61A30,30,0,0,0,51,73L60.37,64Q63.42,63.52,63,66.44Z" transform="translate(0 0)"/><path class="cls-1" d="M82.88,69.19a8.08,8.08,0,0,1,7.41-6V56.29a8,8,0,0,1-7-5.76Q82.23,43,81.37,35.43a13.67,13.67,0,0,0-4-7.27,16.67,16.67,0,0,0-11.53-2.33v8.23H67a1.82,1.82,0,0,1,1.37.28,3.94,3.94,0,0,1,3.3,2.74A3.08,3.08,0,0,1,72.18,39l1.5,13.72a25.69,25.69,0,0,1,2.75,3.57,10,10,0,0,1,1,5.21q.08,10.16-.14,20.31a8.63,8.63,0,0,1-5.07,6.86h-.55a1.52,1.52,0,0,1-.83.41,38.79,38.79,0,0,0-4.66.42,10.21,10.21,0,0,0-.28,3.29,27,27,0,0,0,5.49-.28,9.69,9.69,0,0,0,8.37-5.21,54.72,54.72,0,0,0,2.61-13.17,10.87,10.87,0,0,1,.55-3.84Z" transform="translate(0 0)"/><path class="cls-1" d="M42,89.5a31,31,0,0,1-.55,4.39q-1.72,8.46-3,17a1.3,1.3,0,0,1-.82-.14q-5.52-3.7-10.71-7.82Q24,100.3,21.27,97.45A43.85,43.85,0,0,1,9.88,70.83v-.54a2.62,2.62,0,0,1-.27-1.65q-.15-24.7.27-49.4A97.22,97.22,0,0,1,42,10.73a14.49,14.49,0,0,1,4.39-.54A36.65,36.65,0,0,0,51,9.64c.57-2.88,1-5.8,1.38-8.79A.78.78,0,0,0,52.69,0,7.08,7.08,0,0,0,50,.31q-3.72.2-7.41.54a18.44,18.44,0,0,0-4.67.55A122.35,122.35,0,0,0,.55,12.66Q0,26.7,0,40.92q.08,14,.14,28A45.17,45.17,0,0,0,1.65,79.07l.27,2.19A56.84,56.84,0,0,0,20.31,109.8a16.23,16.23,0,0,0,3,2.89A117.45,117.45,0,0,0,45.42,126q3.6-17.94,6.72-36a.3.3,0,0,0,.28-.27A98.1,98.1,0,0,0,42,89.5Z" transform="translate(0 0)"/><path class="cls-2" d="M171,91.2H135.08l-7.51,21.59H110.81l35-92.74h14.46l35.09,92.74H178.59Zm-31.41-13h26.88L153,39.73Z" transform="translate(0 0)"/><path class="cls-2" d="M245.47,106q-6.81,8-19.36,8-11.22,0-17-6.56t-5.76-19V43.87h15.48V88.33q0,13.13,10.89,13.12,11.26,0,15.22-8.09V43.87h15.48v68.92H245.85Z" transform="translate(0 0)"/><path class="cls-2" d="M295.6,27.12V43.87h12.17V55.33H295.6V93.81q0,3.94,1.56,5.7t5.58,1.75a23.56,23.56,0,0,0,5.41-.64v12A37.94,37.94,0,0,1,298,114.06q-17.83,0-17.84-19.68v-39H268.78V43.87h11.34V27.12Z" transform="translate(0 0)"/><path class="cls-2" d="M334.84,51.39A24.19,24.19,0,0,1,354,42.59q22,0,22.36,25.17v45H360.89V68.33q0-7.14-3.09-10.1t-9.07-3q-9.3,0-13.89,8.28v49.24H319.36V15h15.48Z" transform="translate(0 0)"/><path class="cls-2" d="M416.31,93.17l14.59-49.3h16L423,112.79H409.56L385.48,43.87h16Z" transform="translate(0 0)"/><path class="cls-2" d="M486.06,114.06q-14.71,0-23.85-9.26t-9.15-24.69V78.2a41.29,41.29,0,0,1,4-18.44,30.3,30.3,0,0,1,11.17-12.64,29.53,29.53,0,0,1,16.06-4.53q14.07,0,21.75,9T513.71,77v6.24h-45q.7,8.55,5.7,13.51a17.14,17.14,0,0,0,12.58,5,21,21,0,0,0,17.33-8.6l8.34,8a27.83,27.83,0,0,1-11.05,9.59A34.64,34.64,0,0,1,486.06,114.06Zm-1.85-59a13,13,0,0,0-10.28,4.45q-3.93,4.47-5,12.43h29.49V70.75Q497.91,63,494.28,59T484.21,55Z" transform="translate(0 0)"/><path class="cls-2" d="M561.8,58a38.3,38.3,0,0,0-6.31-.51q-10.63,0-14.33,8.15v47.14H525.68V43.87h14.78l.38,7.71q5.61-9,15.54-9a14.36,14.36,0,0,1,5.48.9Z" transform="translate(0 0)"/><path class="cls-2" d="M610.21,94.06a7,7,0,0,0-3.41-6.3q-3.4-2.17-11.31-3.83a57.82,57.82,0,0,1-13.18-4.2q-11.59-5.61-11.59-16.24,0-8.93,7.51-14.91t19.11-6q12.36,0,20,6.12a19.39,19.39,0,0,1,7.61,15.86H609.44a9.53,9.53,0,0,0-3.31-7.42,12.72,12.72,0,0,0-8.79-3A13.7,13.7,0,0,0,589,56.54a7.44,7.44,0,0,0-3.22,6.31,6.26,6.26,0,0,0,3,5.54q3,2,12.1,4a57.28,57.28,0,0,1,14.3,4.78,20.32,20.32,0,0,1,7.71,6.66,17,17,0,0,1,2.51,9.42,18,18,0,0,1-7.7,15.07q-7.71,5.76-20.2,5.76a35.55,35.55,0,0,1-15.09-3,24.8,24.8,0,0,1-10.32-8.41,19.86,19.86,0,0,1-3.7-11.53h15a10.9,10.9,0,0,0,4.14,8.44q3.81,3,10.12,3,6.12,0,9.3-2.32A7.19,7.19,0,0,0,610.21,94.06Z" transform="translate(0 0)"/><path class="cls-2" d="M669.26,114.06q-14.71,0-23.86-9.26t-9.14-24.69V78.2a41.42,41.42,0,0,1,4-18.44,30.32,30.32,0,0,1,11.18-12.64,29.52,29.52,0,0,1,16.05-4.53q14.09,0,21.76,9T696.9,77v6.24h-45q.69,8.55,5.7,13.51a17.13,17.13,0,0,0,12.58,5,21,21,0,0,0,17.33-8.6l8.34,8a27.83,27.83,0,0,1-11.05,9.59A34.64,34.64,0,0,1,669.26,114.06Zm-1.85-59a13,13,0,0,0-10.29,4.45q-3.92,4.47-5,12.43h29.49V70.75c-.33-5.18-1.72-9.1-4.14-11.75S671.7,55,667.41,55Z" transform="translate(0 0)"/></g></g></svg>